<mxfile host="65bd71144e" modified="2020-10-20T09:03:41.507Z" agent="5.0 (Windows NT 10.0; Win64; x64) AppleWebKit/537.36 (KHTML, like Gecko) Code/1.50.1 Chrome/83.0.4103.122 Electron/9.2.1 Safari/537.36" etag="P719qJC6t96KR51XP7Bp" version="13.6.5">
    <diagram id="ftzK3skFXpYELHJWYk5C" name="Page-1">
        <mxGraphModel dx="193" dy="380" grid="1" gridSize="10" guides="1" tooltips="1" connect="1" arrows="1" fold="1" page="1" pageScale="1" pageWidth="850" pageHeight="1100" math="0" shadow="0">
            <root>
                <mxCell id="0"/>
                <mxCell id="1" parent="0"/>
                <mxCell id="Rlcjg0KeT8GsmHTueJET-1" value="RgbColorSensor" style="swimlane;fontStyle=1;align=center;verticalAlign=top;childLayout=stackLayout;horizontal=1;startSize=26;horizontalStack=0;resizeParent=1;resizeParentMax=0;resizeLast=0;collapsible=1;marginBottom=0;" parent="1" vertex="1">
                    <mxGeometry x="160" y="90" width="220" height="180" as="geometry"/>
                </mxCell>
                <mxCell id="Rlcjg0KeT8GsmHTueJET-2" value="+ greenValue : int&#10;+ redValue : int&#10;+ deviceID : int" style="text;strokeColor=none;fillColor=none;align=left;verticalAlign=top;spacingLeft=4;spacingRight=4;overflow=hidden;rotatable=0;points=[[0,0.5],[1,0.5]];portConstraint=eastwest;" parent="Rlcjg0KeT8GsmHTueJET-1" vertex="1">
                    <mxGeometry y="26" width="220" height="54" as="geometry"/>
                </mxCell>
                <mxCell id="Rlcjg0KeT8GsmHTueJET-3" value="" style="line;strokeWidth=1;fillColor=none;align=left;verticalAlign=middle;spacingTop=-1;spacingLeft=3;spacingRight=3;rotatable=0;labelPosition=right;points=[];portConstraint=eastwest;" parent="Rlcjg0KeT8GsmHTueJET-1" vertex="1">
                    <mxGeometry y="80" width="220" height="8" as="geometry"/>
                </mxCell>
                <mxCell id="Rlcjg0KeT8GsmHTueJET-4" value="+ getColor(): string&#10;+ sensorConnected() : bool&#10;- getColorValue() : int&#10;- initSensor() : void" style="text;strokeColor=none;fillColor=none;align=left;verticalAlign=top;spacingLeft=4;spacingRight=4;overflow=hidden;rotatable=0;points=[[0,0.5],[1,0.5]];portConstraint=eastwest;" parent="Rlcjg0KeT8GsmHTueJET-1" vertex="1">
                    <mxGeometry y="88" width="220" height="92" as="geometry"/>
                </mxCell>
            </root>
        </mxGraphModel>
    </diagram>
</mxfile>